<?xml version="1.0" encoding="UTF-8"?>
<!DOCTYPE svg PUBLIC "-//W3C//DTD SVG 1.1//EN" "http://www.w3.org/Graphics/SVG/1.1/DTD/svg11.dtd">
<!-- Creator: CorelDRAW X7 -->
<svg xmlns="http://www.w3.org/2000/svg" xml:space="preserve" width="1000px" height="1000px" version="1.1" style="shape-rendering:geometricPrecision; text-rendering:geometricPrecision; image-rendering:optimizeQuality; fill-rule:evenodd; clip-rule:evenodd"
viewBox="0 0 1000 1000"
 xmlns:xlink="http://www.w3.org/1999/xlink">
 <defs>
  <style type="text/css">
   <![CDATA[
    .fil0 {fill:#4F46E5}
   ]]>
  </style>
 </defs>
 <g id="Layer_x0020_1">
  <metadata id="CorelCorpID_0Corel-Layer"/>
  <path class="fil0" d="M226 426l0 0 0 14c4,51 18,92 41,120 28,32 65,46 106,46l254 0c41,0 78,-14 106,-46 27,-32 46,-74 46,-134 0,-55 -14,-101 -46,-133 -28,-28 -65,-46 -106,-46l0 0 0 0 -254 0 0 0c-41,0 -78,18 -106,46 -27,32 -41,78 -41,133l0 0zm401 -368l0 0c73,0 133,13 193,46 56,27 102,73 134,129 32,55 46,120 46,193 0,74 -14,139 -46,198 -37,56 -78,97 -138,129 -56,28 -125,37 -189,33l0 0 -254 0 0 0c-50,0 -97,-5 -143,-10l-230 166 0 -147 0 -369c0,-73 18,-138 51,-193 32,-56 78,-102 133,-129 56,-33 120,-46 189,-46l0 0 254 0 0 0 0 0z"/>
 </g>
</svg>
