<?xml version="1.0" encoding="UTF-8"?>
<!DOCTYPE svg PUBLIC "-//W3C//DTD SVG 1.1//EN" "http://www.w3.org/Graphics/SVG/1.1/DTD/svg11.dtd">
<!-- Creator: CorelDRAW X7 -->
<svg xmlns="http://www.w3.org/2000/svg" xml:space="preserve" width="1000px" height="237px" version="1.1" style="shape-rendering:geometricPrecision; text-rendering:geometricPrecision; image-rendering:optimizeQuality; fill-rule:evenodd; clip-rule:evenodd"
viewBox="0 0 1000 237"
 xmlns:xlink="http://www.w3.org/1999/xlink">
 <defs>
  <style type="text/css">
   <![CDATA[
    .fil0 {fill:#4F46E5}
   ]]>
  </style>
 </defs>
 <g id="Layer_x0020_1">
  <metadata id="CorelCorpID_0Corel-Layer"/>
  <g id="_1576390684048">
   <path class="fil0" d="M763 2c18,0 33,5 44,17 11,12 16,28 16,49l0 91 -48 0 0 -85c0,-10 -2,-18 -8,-24 -5,-6 -12,-9 -22,-9 -9,0 -16,3 -21,9 -6,6 -8,14 -8,24l0 85 -48 0 0 -156 48 0 0 21c4,-7 11,-12 19,-16 8,-4 18,-6 28,-6zm-183 159c-15,0 -29,-3 -41,-9 -12,-7 -22,-16 -29,-28 -7,-12 -10,-27 -10,-43 0,-16 3,-30 10,-42 7,-12 17,-22 29,-28 13,-7 27,-10 42,-10 15,0 29,3 41,10 13,6 22,16 29,28 7,12 11,26 11,42 0,16 -4,30 -11,43 -7,12 -17,21 -29,28 -13,6 -26,9 -42,9zm0 -41c9,0 17,-3 24,-10 6,-7 9,-16 9,-29 0,-12 -3,-22 -9,-29 -6,-6 -14,-10 -23,-10 -9,0 -17,4 -23,10 -6,7 -10,17 -10,29 0,13 3,22 10,29 6,7 13,10 22,10zm-148 -118c19,0 35,5 46,17 12,12 17,28 17,49l0 91 -47 0 0 -85c0,-10 -3,-17 -8,-23 -5,-5 -13,-8 -22,-8 -9,0 -17,3 -22,8 -5,6 -8,13 -8,23l0 85 -48 0 0 -85c0,-10 -2,-17 -7,-23 -6,-5 -13,-8 -22,-8 -10,0 -17,3 -22,8 -6,6 -8,13 -8,23l0 85 -48 0 0 -156 48 0 0 20c4,-7 11,-12 19,-16 7,-4 16,-5 26,-5 12,0 22,2 32,7 9,5 16,12 21,22 6,-9 13,-16 22,-21 10,-6 20,-8 31,-8z"/>
   <path class="fil0" d="M909 161c-15,0 -29,-3 -41,-9 -13,-7 -22,-16 -29,-28 -7,-12 -11,-27 -11,-43 0,-16 4,-30 11,-42 7,-12 17,-22 29,-28 12,-7 26,-10 41,-10 16,0 30,3 42,10 12,6 22,16 29,28 7,12 11,26 11,42 0,16 -4,30 -11,43 -7,12 -17,21 -30,28 -12,6 -26,9 -41,9zm0 -41c9,0 17,-3 23,-10 7,-7 10,-16 10,-29 0,-12 -3,-22 -10,-29 -6,-6 -13,-10 -23,-10 -9,0 -17,4 -23,10 -6,7 -9,17 -9,29 0,13 3,22 9,29 6,7 14,10 23,10z"/>
   <path class="fil0" d="M58 81l0 0 0 3c1,11 4,20 9,26 6,7 14,10 23,10l55 0c9,0 17,-3 23,-10 6,-7 10,-16 10,-29 0,-12 -3,-22 -10,-29 -6,-6 -14,-10 -23,-10l0 0 0 0 -55 0 0 0c-9,0 -17,4 -23,10 -6,7 -9,17 -9,29zm87 -80l0 0c16,0 29,3 42,10 12,6 22,16 29,28 7,12 10,26 10,42 0,16 -3,30 -10,43 -8,12 -17,21 -30,28 -12,6 -27,8 -41,7l0 0 -55 0 0 0c-11,0 -21,-1 -31,-2l-50 36 0 -32 0 -80c0,-16 4,-30 11,-42 7,-12 17,-22 29,-28 12,-7 26,-10 41,-10l0 0 55 0 0 0z"/>
   <path class="fil0" d="M988 175l0 -41c-8,12 -18,22 -31,28 -6,3 -12,6 -18,7l0 6c-1,5 -3,8 -6,11 -6,6 -14,9 -24,9 -8,0 -15,-2 -20,-5 -6,-4 -10,-9 -11,-15l-47 0c2,19 10,34 24,45 15,11 33,16 56,16 18,0 32,-3 44,-10 12,-7 20,-16 26,-28 3,-7 6,-15 7,-23z"/>
  </g>
 </g>
</svg>
