<?xml version="1.0" encoding="UTF-8"?>
<!DOCTYPE svg PUBLIC "-//W3C//DTD SVG 1.1//EN" "http://www.w3.org/Graphics/SVG/1.1/DTD/svg11.dtd">
<!-- Creator: CorelDRAW X7 -->
<svg xmlns="http://www.w3.org/2000/svg" xml:space="preserve" width="1000px" height="239px" version="1.1" style="shape-rendering:geometricPrecision; text-rendering:geometricPrecision; image-rendering:optimizeQuality; fill-rule:evenodd; clip-rule:evenodd"
viewBox="0 0 1000 239"
 xmlns:xlink="http://www.w3.org/1999/xlink">
 <defs>
  <style type="text/css">
   <![CDATA[
    .fil0 {fill:white}
   ]]>
  </style>
 </defs>
 <g id="Layer_x0020_1">
  <metadata id="CorelCorpID_0Corel-Layer"/>
  <g id="_1626270855248">
   <path class="fil0" d="M768 1c18,0 33,5 45,17 11,12 16,29 16,50l0 93 -49 0 0 -87c0,-10 -2,-18 -8,-24 -5,-6 -12,-9 -23,-9 -9,0 -16,3 -21,9 -6,6 -8,14 -8,24l0 87 -49 0 0 -159 49 0 0 21c4,-7 11,-12 19,-16 8,-4 19,-6 29,-6l0 0zm-187 162c-15,0 -29,-3 -41,-9 -13,-8 -23,-17 -30,-29 -7,-12 -10,-27 -10,-44 0,-16 3,-30 10,-42 7,-13 17,-23 30,-29 13,-7 27,-10 42,-10 16,0 30,3 42,10 13,6 23,16 30,29 7,12 11,26 11,42 0,17 -4,31 -11,44 -7,12 -18,21 -30,29 -13,6 -26,9 -43,9zm0 -42c10,0 18,-3 25,-10 6,-7 9,-16 9,-30 0,-12 -3,-22 -9,-29 -6,-6 -14,-10 -24,-10 -9,0 -17,4 -23,10 -6,7 -10,17 -10,29 0,14 3,23 10,30 6,7 13,10 22,10zm-150 -120c19,0 35,5 47,17 12,12 17,29 17,50l0 93 -48 0 0 -87c0,-10 -3,-17 -8,-23 -5,-5 -13,-8 -23,-8 -9,0 -17,3 -22,8 -5,6 -8,13 -8,23l0 87 -49 0 0 -87c0,-10 -2,-17 -7,-23 -6,-5 -13,-8 -22,-8 -11,0 -18,3 -23,8 -6,6 -8,13 -8,23l0 87 -49 0 0 -159 49 0 0 20c4,-7 11,-12 19,-16 7,-4 17,-5 27,-5 12,0 22,2 32,7 10,5 17,12 22,22 6,-9 13,-16 22,-21 10,-6 21,-8 32,-8l0 0z"/>
   <path class="fil0" d="M916 163c-15,0 -29,-3 -41,-9 -13,-8 -23,-17 -30,-29 -7,-12 -11,-27 -11,-44 0,-16 4,-30 11,-42 7,-13 18,-23 30,-29 12,-7 26,-10 41,-10 17,0 31,3 43,10 12,6 23,16 30,29 7,12 11,26 11,42 0,17 -4,31 -11,44 -7,12 -18,21 -31,29 -12,6 -26,9 -42,9zm0 -42c10,0 18,-3 24,-10 7,-7 10,-16 10,-30 0,-12 -3,-22 -10,-29 -6,-6 -13,-10 -24,-10 -9,0 -17,4 -23,10 -6,7 -9,17 -9,29 0,14 3,23 9,30 6,7 14,10 23,10z"/>
   <path class="fil0" d="M50 81l0 0 0 3c1,12 4,21 9,27 6,7 14,10 23,10l56 0c10,0 18,-3 24,-10 6,-7 10,-16 10,-30 0,-12 -3,-22 -10,-29 -6,-6 -14,-10 -24,-10l0 0 0 0 -56 0 0 0c-9,0 -17,4 -23,10 -6,7 -9,17 -9,29l0 0zm88 -81l0 0c17,0 30,3 43,10 12,6 23,16 30,29 7,12 10,26 10,42 0,17 -3,31 -10,44 -8,12 -18,21 -31,29 -12,6 -27,8 -42,7l0 0 -56 0 0 0c-11,0 -21,-1 -31,-2l-51 36 0 -32 0 -82c0,-16 4,-30 11,-42 7,-13 18,-23 30,-29 12,-7 26,-10 41,-10l0 0 56 0 0 0 0 0z"/>
   <path class="fil0" d="M997 177l0 -42c-8,13 -18,23 -32,29 -6,3 -12,6 -18,7l0 6c-1,5 -3,8 -6,11 -6,6 -14,9 -25,9 -8,0 -15,-2 -20,-5 -6,-4 -10,-9 -11,-15l-48 0c2,19 10,35 25,46 15,11 33,16 57,16 18,0 32,-3 44,-10 13,-7 21,-16 27,-29 3,-7 6,-15 7,-23l0 0z"/>
  </g>
 </g>
</svg>
